HIERARCHY
ROOT root
{
	OFFSET 0.000000 0.000000 0.000000
	CHANNELS 6 Xposition Yposition Zposition Zrotation Yrotation Xrotation
	JOINT lhip
	{
		OFFSET 0.058581 -0.082280 -0.017664
		CHANNELS 3 Zrotation Yrotation Xrotation
		JOINT lknee
		{
			OFFSET 0.043451 -0.386469 0.008037
			CHANNELS 3 Zrotation Yrotation Xrotation
			JOINT lankle
			{
				OFFSET -0.014790 -0.426874 -0.037428
				CHANNELS 3 Zrotation Yrotation Xrotation
				JOINT ltoe
				{
					OFFSET 0.041054 -0.060286 0.122042
					CHANNELS 3 Zrotation Yrotation Xrotation
					End Site
					{
						OFFSET 0.000000 0.000000 0.000000
					}
				}
			}
		}
	}
	JOINT rhip
	{
		OFFSET -0.060310 -0.090513 -0.013543
		CHANNELS 3 Zrotation Yrotation Xrotation
		JOINT rknee
		{
			OFFSET -0.043257 -0.383688 -0.004843
			CHANNELS 3 Zrotation Yrotation Xrotation
			JOINT rankle
			{
				OFFSET 0.019056 -0.420046 -0.034562
				CHANNELS 3 Zrotation Yrotation Xrotation
				JOINT rtoe
				{
					OFFSET -0.034840 -0.062106 0.130323
					CHANNELS 3 Zrotation Yrotation Xrotation
					End Site
					{
						OFFSET 0.000000 0.000000 0.000000
					}
				}
			}
		}
	}
	JOINT lowerback
	{
		OFFSET 0.004439 0.124404 -0.038385
		CHANNELS 3 Zrotation Yrotation Xrotation
		JOINT upperback
		{
			OFFSET 0.004488 0.137956 0.026820
			CHANNELS 3 Zrotation Yrotation Xrotation
			JOINT chest
			{
				OFFSET -0.002265 0.056032 0.002855
				CHANNELS 3 Zrotation Yrotation Xrotation
				JOINT lowerneck
				{
					OFFSET -0.013390 0.211636 -0.033468
					CHANNELS 3 Zrotation Yrotation Xrotation
					JOINT upperneck
					{
						OFFSET 0.010113 0.088937 0.050410
						CHANNELS 3 Zrotation Yrotation Xrotation
						End Site
						{
							OFFSET 0.000000 0.000000 0.000000
						}
					}
				}
				JOINT lclavicle
				{
					OFFSET 0.071702 0.114000 -0.018898
					CHANNELS 3 Zrotation Yrotation Xrotation
					JOINT lshoulder
					{
						OFFSET 0.122921 0.045205 -0.019046
						CHANNELS 3 Zrotation Yrotation Xrotation
						JOINT lelbow
						{
							OFFSET 0.255332 -0.015649 -0.022946
							CHANNELS 3 Zrotation Yrotation Xrotation
							JOINT lwrist
							{
								OFFSET 0.265709 0.012698 -0.007375
								CHANNELS 3 Zrotation Yrotation Xrotation
								End Site
								{
									OFFSET 0.000000 0.000000 0.000000
								}
							}
						}
					}
				}
				JOINT rclavicle
				{
					OFFSET -0.082954 0.112472 -0.023707
					CHANNELS 3 Zrotation Yrotation Xrotation
					JOINT rshoulder
					{
						OFFSET -0.113228 0.046853 -0.008472
						CHANNELS 3 Zrotation Yrotation Xrotation
						JOINT relbow
						{
							OFFSET -0.260127 -0.014369 -0.031269
							CHANNELS 3 Zrotation Yrotation Xrotation
							JOINT rwrist
							{
								OFFSET -0.269108 0.006794 -0.006027
								CHANNELS 3 Zrotation Yrotation Xrotation
								End Site
								{
									OFFSET 0.000000 0.000000 0.000000
								}
							}
						}
					}
				}
			}
		}
	}
}
MOTION
Frames: 5
Frame Time: 0.033333
-0.299413 0.298080 0.974410 3.114718 2.034434 86.354372 3.417969 5.441996 19.082310 -3.150251 -11.056628 3.488821 3.683012 7.878415 -21.934171 0.000000 -0.000000 0.000000 1.279947 -1.673202 -18.659563 -2.093889 7.827502 8.303852 7.532237 2.079058 4.546469 0.000000 -0.000000 0.000000 0.981259 -3.958080 0.511242 4.299449 -5.485684 15.880034 0.147212 -2.928762 2.611072 -1.297986 3.086280 -1.526759 1.088580 7.269054 -5.082176 -27.411679 -3.990032 2.172865 -63.679942 -12.286825 20.111456 76.009105 -81.718358 -70.005460 28.691342 6.466170 -25.997192 24.697481 4.542579 5.426955 55.549797 6.438410 22.294233 -81.450716 82.265463 -72.429608 -3.997288 4.895603 -22.431157 
-0.300819 0.285246 0.972734 0.489857 -0.041317 85.483640 -0.622818 5.753901 20.265309 -1.550486 -9.884609 4.822218 4.022644 10.508209 -20.531670 0.000000 -0.000000 0.000000 -1.849434 3.030071 -21.555185 -0.936485 5.032021 16.197054 9.661839 1.238415 3.707705 0.000000 -0.000000 0.000000 0.871476 -5.526128 7.049515 2.202776 -1.166157 9.752889 -0.108725 -1.641443 3.765685 0.507279 4.814331 -4.582221 -0.018133 6.434324 -1.502354 -25.526647 -2.420292 -0.173291 -64.606571 -11.445197 20.620757 67.324643 -82.617894 -61.153263 27.161246 4.018557 -26.284821 25.065330 4.718335 3.965267 56.693940 6.551632 24.313322 -75.140960 80.657543 -66.840732 -4.419937 5.372521 -20.754900 
-0.307371 0.260037 0.976121 1.886378 0.232973 85.492673 0.210688 4.962968 20.058181 -1.785548 -10.187395 8.307827 2.188045 10.220243 -19.285332 0.000000 -0.000000 0.000000 -2.300627 3.555187 -20.468943 0.004507 3.055954 17.905823 8.502193 1.232933 1.437583 0.000000 -0.000000 0.000000 1.667587 -5.771657 7.058246 2.469656 -1.026423 9.835103 -0.096202 -1.501670 3.481169 0.752543 5.047966 -4.088787 -0.211193 6.211524 -1.589081 -25.977544 -2.472639 -0.070762 -64.265866 -10.897193 20.533656 65.624608 -82.508252 -59.574907 26.689633 3.943082 -26.232370 25.570704 4.837734 3.955308 55.884750 6.787937 23.818564 -71.308804 80.696240 -62.978841 -4.644053 5.239575 -20.632225 
-0.316729 0.228703 0.983434 3.305582 0.053266 85.799128 1.337131 4.324973 17.811403 -3.298807 -9.395219 15.359706 0.556109 9.060305 -16.509099 0.000000 -0.000000 0.000000 -1.838629 2.392220 -18.586673 0.216496 3.142658 18.557435 7.053351 1.412217 -1.005096 0.000000 -0.000000 0.000000 1.808120 -4.571153 6.319141 2.946697 -1.406602 10.105934 0.046086 -1.573768 3.230859 1.429754 4.912284 -3.586634 0.217074 5.874347 -0.758270 -26.031818 -2.213907 0.091773 -64.276203 -10.259314 20.325358 62.820370 -82.813785 -56.682856 26.601217 4.909957 -26.150484 25.801375 4.754237 3.984872 55.253278 7.098425 23.189256 -66.651857 80.924178 -58.172865 -3.948289 4.797372 -20.853031 
-0.322063 0.210839 0.988428 4.403959 -0.052244 86.076092 2.082381 3.788502 15.243947 -4.308815 -7.949604 21.083411 -0.102708 8.261569 -14.051078 0.000000 -0.000000 0.000000 -1.603577 1.662876 -16.952606 0.204929 2.970127 17.767365 6.009130 1.426367 -2.176003 0.000000 -0.000000 0.000000 1.793245 -3.726202 5.873155 3.282677 -1.708770 9.999348 0.233664 -1.559014 3.034461 1.884953 4.648607 -3.077157 0.497887 5.706371 -0.175097 -26.181665 -2.106867 0.260295 -64.213725 -9.927726 20.183124 60.036884 -83.242505 -53.868827 25.929476 5.216357 -26.445494 25.609266 4.536050 4.216281 54.867127 7.211775 22.767112 -65.636412 81.244814 -56.936825 -3.417298 4.610519 -21.406735 
